<svg xmlns="http://www.w3.org/2000/svg" viewBox="0 0 62 62.7"><path d="M60.6 25.7c-2.2-4.5-6.8-7.7-12.1-7.7-1.9 0-3.7.4-5.3 1.1.7-1.6 1.1-3.4 1.1-5.3C44.3 6.4 38.3.5 31 .4h-.1c-7.4 0-13.4 6-13.4 13.4 0 1.8.4 3.6 1.1 5.2-1.6-.7-3.3-1-5.1-1-2.9 0-5.7 1-7.9 2.6C2.2 23.1.1 27 .1 31.4s2.2 8.4 5.5 10.8c2.2 1.6 5 2.6 7.9 2.6 1.8 0 3.4-.3 5-1-.6 1.5-1 3.2-1 5 0 7.4 6 13.4 13.4 13.4h.1c7.4-.1 13.3-6.1 13.3-13.4 0-1.8-.4-3.5-1-5.1 1.6.7 3.4 1.1 5.2 1.1 5.3 0 10-3.2 12.1-7.7.9-1.7 1.3-3.7 1.3-5.7s-.4-4-1.3-5.7zM36.1 36.5c-1.6-.7-3.3-1.1-5.1-1.1h-.1c-1.8 0-3.4.3-5 1 .6-1.5 1-3.2 1-5 0-1.8-.4-3.6-1.1-5.2 1.6.7 3.3 1 5.1 1h.1c1.9 0 3.6-.4 5.2-1.1-.7 1.6-1.1 3.4-1.1 5.3 0 1.8.4 3.5 1 5.1z" fill-rule="evenodd" clip-rule="evenodd" fill="#060607"/></svg>